HIERARCHY
ROOT Hips
{
  OFFSET 215.794 88.6758 221.917
  CHANNELS 6 Xposition Yposition Zposition Zrotation Xrotation Yrotation
  JOINT ToSpine
  {
    OFFSET -0.0105055 1.38907 -7.13956
    CHANNELS 3 Zrotation Xrotation Yrotation
    JOINT Spine
    {
      OFFSET 0.0105055 10 1
      CHANNELS 3 Zrotation Xrotation Yrotation
      JOINT Spine1
      {
        OFFSET 0 12 1.60637
        CHANNELS 3 Zrotation Xrotation Yrotation
        JOINT Neck
        {
          OFFSET 0 27 2.26658
          CHANNELS 3 Zrotation Xrotation Yrotation
          JOINT Head
          {
            OFFSET 0 9 2.12705
            CHANNELS 3 Zrotation Xrotation Yrotation
            End Site
            {
              OFFSET 0 11 2
            }
          }
        }
        JOINT LeftShoulder
        {
          OFFSET 8 19.6109 2.86452
          CHANNELS 3 Zrotation Xrotation Yrotation
          JOINT LeftArm
          {
            OFFSET 12 1 0.681055
            CHANNELS 3 Zrotation Xrotation Yrotation
            JOINT LeftForeArm
            {
              OFFSET 19 0 -1.52608
              CHANNELS 3 Zrotation Xrotation Yrotation
              JOINT LeftHand
              {
                OFFSET 23 0 0
                CHANNELS 3 Zrotation Xrotation Yrotation
                End Site
                {
                  OFFSET 10 0 0
                }
              }
            }
          }
        }
        JOINT RightShoulder
        {
          OFFSET -8 19.6109 2.86452
          CHANNELS 3 Zrotation Xrotation Yrotation
          JOINT RightArm
          {
            OFFSET -12 1 0.681055
            CHANNELS 3 Zrotation Xrotation Yrotation
            JOINT RightForeArm
            {
              OFFSET -19 0 -1.52608
              CHANNELS 3 Zrotation Xrotation Yrotation
              JOINT RightHand
              {
                OFFSET -23 0 0
                CHANNELS 3 Zrotation Xrotation Yrotation
                End Site
                {
                  OFFSET -10 0 0
                }
              }
            }
          }
        }
      }
    }
  }
  JOINT LeftUpLeg
  {
    OFFSET 9 -7.17245 0
    CHANNELS 3 Zrotation Xrotation Yrotation
    JOINT LeftLeg
    {
      OFFSET 0 -44.1113 0
      CHANNELS 3 Zrotation Xrotation Yrotation
      JOINT LeftFoot
      {
        OFFSET 0 -36.1829 0
        CHANNELS 3 Zrotation Xrotation Yrotation
        JOINT LeftToeBase
        {
          OFFSET 0 -4.84184 13
          CHANNELS 3 Zrotation Xrotation Yrotation
          End Site
          {
            OFFSET 0 1 6
          }
        }
      }
    }
  }
  JOINT RightUpLeg
  {
    OFFSET -9 -7.17245 0
    CHANNELS 3 Zrotation Xrotation Yrotation
    JOINT RightLeg
    {
      OFFSET 0 -44.0551 0
      CHANNELS 3 Zrotation Xrotation Yrotation
      JOINT RightFoot
      {
        OFFSET 0 -36.1469 0
        CHANNELS 3 Zrotation Xrotation Yrotation
        JOINT RightToeBase
        {
          OFFSET 0 -4.92256 13
          CHANNELS 3 Zrotation Xrotation Yrotation
          End Site
          {
            OFFSET 0 1 6
          }
        }
      }
    }
  }
}
MOTION
Frames:	21
Frame Time:	0.0333333
215.794 88.6758 221.917 6.39901 -6.61916 -125.111 0 0 0 -0.969745 21.1614 -8.41438 -9.54005 -16.0071 -8.39087 26.5554 -6.69009 1.28943 -6.88492 -0.073367 9.17938 -21.6008 3.88557 -10.3233 -23.9558 17.0982 -46.6507 59.793 -9.87382 -95.701 -7.73004 0.618276 -9.13223 27.5216 5.39405 12.4421 49.308 -1.86057 -35.6891 -68.2732 29.8155 78.793 26.1678 -0.32064 -1.37956 3.52686 -12.8329 14.6964 1.02662e-006 48.0303 -20.0793 26.7693 -34.9744 8.57457 1.94353 -18.2849 -8.729 -0.285216 -37.384 -0.928152 180 84.7181 168.594 -37.9432 -17.2609 -5.97371 5.37989 -21.6683 -7.2113 
207.074 89.0306 213.621 7.87261 -3.45768 -125.159 0 0 0 -5.922 13.4354 -8.54118 3.88578 -3.03688 -9.85112 16.5557 -13.1178 6.98987 -1.95745 3.55928 10.0808 -14.5645 3.39677 -12.2307 -23.8894 6.89041 -61.3815 60.5124 -8.51757 -94.7877 -5.95214 0.133511 -2.56763 16.372 3.0669 9.70903 48.4691 -4.01739 -40.3417 -18.7079 15.1041 52.4224 9.03873 0.243782 3.08347 7.71221 0.356688 15.1596 2.16807e-007 37.9206 -21.7928 24.0542 -29.9292 6.51848 1.85247 -28.0822 -9.47059 2.88406 -46.5174 0.285005 4.13774e-006 86.6341 -15.8808 -36.5152 -18.2455 -6.06487 5.19506 -20.1144 -4.70302 
197.736 90.2953 204.992 9.46249 -0.63184 -126.833 0 0 0 -3.69132 12.5637 -11.6363 7.82699 -3.51189 -13.1209 11.1931 -11.2544 11.4757 0.296449 4.80416 12.9545 -8.64902 2.30334 -10.7195 -22.7495 4.22997 -59.8051 58.8283 -10.2633 -96.1519 -2.7488 0.0185577 -0.77347 10.414 2.42757 10.1505 44.5051 -4.86958 -47.2446 -29.4096 20.2136 58.4932 12.595 0.352317 3.19171 9.42576 14.0953 12.482 -0.994117 22.6844 -18.2947 18.9997 -9.02666 1.51357 3.03748 -43.2929 -1.21104 7.55824 -50.9019 3.08072 1.02655e-006 71.2766 -15.7996 -33.2535 -13.9875 -4.19596 4.45738 -17.2057 -6.3176 
187.549 91.7576 195.532 10.4808 0.508173 -129.352 0 0 0 -2.31869 7.79484 -13.4225 8.60306 0.32468 -14.8617 10.8448 -14.8303 14.8896 -1.94672 10.057 16.1555 -0.800328 1.24167 -10.001 -26.9007 0.741856 -57.0092 53.4384 -10.3257 -97.572 -4.83671 0.122524 -2.90051 9.18712 2.71391 12.7431 42.1926 -4.6332 -53.6814 -17.6491 12.0939 56.6345 9.44926 0.217097 2.62632 8.32682 23.3559 10.3032 0.637725 13.9312 -15.4539 15.7442 11.6414 -1.61505 2.27967 -39.2872 -4.71654 10.2127 -49.8699 4.66189 1.54797e-007 51.6201 -7.98239 -29.7524 -8.45951 -2.25094 4.31114 -16.5459 -6.39388 
177.535 91.8731 185.973 11.1808 0.416117 -130.91 0 0 0 -1.86495 2.38584 -14.4344 9.15451 3.99424 -15.7746 9.43765 -16.5458 16.5082 -3.29931 10.8733 17.6205 3.10282 0.72841 -9.16394 -27.1887 1.66528 -54.9233 53.679 -11.0791 -98.0408 -5.41448 0.0865435 -1.83008 9.54521 2.68539 12.2731 39.6092 -2.76296 -56.5379 -17.9146 11.5271 58.2778 6.17812 0.526447 9.73167 7.06596 25.9388 9.91382 1.13165 19.4158 -17.6966 18.8159 13.6375 -2.27004 1.52853 -21.0036 -1.62801 10.3472 -47.4398 3.20821 -7.84392e-008 35.2044 7.17593 -28.8622 -6.18239 -1.59239 4.45953 -17.5361 -8.36719 
169.402 90.9173 177.704 9.28609 0.274173 -132.412 0 0 0 -2.40283 1.98978 -13.7358 8.57044 4.83667 -14.6591 7.84365 -14.8951 16.4341 -3.13332 9.37145 17.4538 0.0940414 1.10501 -9.64758 -25.3969 6.93194 -50.9649 55.6404 -10.0698 -96.8167 -7.30439 0.105765 -1.65689 12.5039 3.07931 12.1255 38.6373 -4.00403 -55.8097 -17.5942 11.8726 57.0249 5.63396 0.357977 7.26545 4.82096 25.4271 8.60158 -7.0576e-007 34.6296 -19.2435 20.0317 7.69393 -1.36082 1.83351 -26.1332 -1.78098 9.69122 -44.6073 1.02838 -3.20675e-007 28.8576 8.73993 -26.1377 -5.54623 -1.28842 4.60544 -17.88 -6.31486 
161.388 90.6234 169.413 5.5879 1.40157 -133.699 0 0 0 -3.70844 4.69705 -11.506 9.06667 3.71273 -13.1426 3.34135 -10.426 15.5415 -1.31978 5.90496 15.7239 -9.07893 2.41009 -11.0281 -22.5725 11.7449 -43.835 54.5507 -8.5702 -96.0562 -8.0294 0.281381 -4.00753 14.8234 3.46751 12.3816 38.5069 -7.11127 -52.3817 -16.8406 11.7171 56.1417 4.63201 0.233371 5.76536 3.28826 21.967 11.9353 -6.47106e-007 54.4322 -14.0158 19.9052 7.49492 -1.31698 1.83014 -25.9843 -2.46187 7.69122 -37.9257 -2.78858 1.41335e-008 29.7431 2.9138 -17.0577 -7.65739 -1.15002 3.60761 -13.2315 -8.39533 
153.97 91.0002 161.432 5.49251 4.07171 -134.204 0 0 0 -0.434018 6.51001 -9.70789 8.29802 3.06497 -11.7853 2.38672 -6.9345 14.1999 -2.56361 3.15708 14.8025 -15.632 3.0154 -9.8788 -22.9444 18.2123 -35.6674 54.3646 -4.49583 -93.2162 -6.42276 0.23597 -4.20377 20.4759 4.4106 12.778 36.5202 -10.2296 -46.6405 -15.7293 10.2853 57.6267 4.49309 0.254002 6.46787 6.66268 14.011 13.9072 -5.75938e-008 72.3081 -0.510377 24.7006 2.89369 -0.633717 1.83712 -26.3423 0.178067 8.27335 -33.5143 -11.2293 3.00365e-007 35.2822 8.91839 -25.935 5.14505 1.18551 2.74073 -8.57218 -9.15062 
146.988 89.0707 153.492 6.35513 6.16704 -135.369 0 0 0 1.28935 8.04838 -6.96367 9.66618 0.462857 -9.1726 -0.984355 -5.90461 13.0854 -2.48383 1.32721 12.9614 -24.0434 3.76313 -8.87682 -24.1662 21.6925 -25.3766 58.0694 -0.143168 -90.0892 -8.00317 0.189341 -2.70612 21.6739 4.25921 11.6025 38.6085 -12.0014 -34.3905 -15.3323 9.44104 59.1088 4.12442 0.22108 6.1339 11.7373 2.18495 15.0232 180 89.1213 -170.45 24.8778 -8.07158 1.78321 1.83662 -26.2505 -1.06894 10.9206 -31.4754 -10.7249 -1.84124e-007 49.8254 4.61379 -31.8508 -7.84111 -2.24057 4.50243 -17.7975 -8.62351 
140.498 87.8545 146.441 8.01365 9.22504 -137.462 0 0 0 6.10279 9.73837 -4.24398 7.56307 0.866881 -5.99593 -0.246025 -7.36705 11.1165 -2.78167 2.32571 11.2767 -25.9028 3.94981 -8.77083 -28.8985 22.3301 -10.8177 61.932 0.513966 -89.7259 -8.48845 0.383157 -5.15957 24.3286 4.27811 10.4327 40.816 -11.6066 -17.2156 -14.9907 8.75548 60.3837 1.2416 0.0501716 4.6278 17.0133 -12.5651 13.8282 -180 77.3093 -169.677 31.2123 -13.1685 3.69323 1.75964 -25.1913 -0.600661 15.0465 -24.2793 -9.85955 -2.6956e-009 53.9232 2.74958 -36.3166 -16.1427 -5.3259 4.66901 -18.5895 -8.40534 
133.385 87.0548 139.153 7.42372 9.18579 -137.978 0 0 0 5.7441 10.4593 -2.00229 7.2888 1.36119 -3.58417 0.775586 -7.39063 9.00628 -3.4964 2.73215 9.66495 -24.9299 3.53711 -7.82357 -35.3643 21.9066 5.89782 60.1485 -2.07178 -91.1886 -8.37924 0.398998 -5.44275 22.7957 4.39321 11.5124 43.7645 -7.96113 -3.02877 -14.3645 7.4835 63.0438 0.967086 0.04341 5.14015 16.7037 -28.2308 10.808 -180 75.9534 -171.042 32.991 -16.648 4.96181 1.71353 -24.4968 -0.706153 14.4964 -16.1779 -10.0118 2.5218e-008 55.367 0.473513 -38.8061 -24.6546 -8.80291 4.97987 -20.2952 -8.94905 
125.552 87.0809 131.22 7.00632 6.60952 -139.222 0 0 0 6.26467 7.89376 1.21761 3.35467 1.13335 0.597228 2.57459 -5.42411 5.58944 -3.65283 2.37658 6.90949 -23.4665 3.11581 -6.94691 -38.7468 24.3165 21.1228 59.2954 -7.40554 -94.3771 -8.1712 0.376344 -5.26514 21.9986 4.50285 12.2866 42.823 -3.91196 5.69317 -15.456 6.19152 68.691 1.60684 0.0812691 5.79039 14.3465 -41.7573 9.28242 180 85.1588 -168.505 31.1348 -18.3863 5.16319 1.73713 -24.2382 -2.36987 11.7809 -7.36452 -10.8962 4.28003e-008 51.4973 1.24645 -40.0029 -28.2802 -10.4789 5.55472 -23.1961 -8.96908 
116.7 88.4485 122.249 5.74908 5.23859 -140.719 0 0 0 9.46496 6.98462 5.15161 -4.17704 0.270653 6.22003 6.22335 -6.11003 0.460793 -3.83929 4.69903 2.95098 -20.7884 2.71001 -6.43184 -39.0195 27.3461 31.8264 58.1998 -11.558 -97.0815 -8.54832 0.449329 -6.00668 18.594 4.15586 12.904 45.078 -2.17639 6.83251 -16.5354 3.63963 77.9306 0.267261 0.0129555 5.55048 12.6326 -46.5545 9.71969 -1.53893e-006 76.2325 11.756 31.5213 -15.5445 4.41205 1.6746 -22.4201 -3.13318 8.4403 4.32468 -12.2463 -5.8999e-008 43.4173 7.46167 -34.2302 -22.1568 -6.90068 7.15851 -29.6924 -7.16458 
106.911 90.5119 112.107 3.26463 5.34557 -140.625 0 0 0 11.83 4.81222 8.58229 -10.7208 3.08433 10.9405 10.5411 -7.88549 -4.2875 -3.53137 5.47538 -0.749395 -17.1113 2.54222 -7.15116 -38.263 27.9235 39.3316 59.5213 -14.8046 -98.5524 -8.37554 0.513724 -7.00739 13.5123 3.16499 11.8468 49.4601 -0.557475 5.89977 -17.031 1.03018 86.641 2.05664 0.0985658 5.4871 9.20716 -42.5814 9.9692 -1.37961e-007 52.1106 5.73452 26.0954 -11.0488 2.56805 1.70414 -20.1972 -5.16269 5.04634 18.7796 -14.7076 0.0485845 30.2784 14.8154 -24.2724 -5.04455 -1.08546 10.1337 -36.1392 -0.56376 
96.8406 91.8907 101.499 2.23032 4.56428 -140.143 0 0 0 12.8242 -0.168947 11.2447 -14.3623 6.32012 14.0395 14.1994 -9.49372 -7.99509 -4.17124 7.64865 -3.35688 -11.912 2.26624 -8.35239 -40.3742 26.3183 45.8713 59.5156 -16.4 -99.4368 -7.1988 0.479634 -7.61366 8.82441 2.54208 12.0272 53.0625 1.77833 3.18559 -19.7147 -1.22517 93.4147 2.77909 0.172967 7.12148 6.60084 -36.403 14.4419 3.04732e-008 27.4743 -5.78917 19.7789 -2.22225 0.387469 1.60859 -21.4241 -2.70782 4.33067 27.5964 -7.83957 -0.524887 22.7227 17.7026 -25.4157 12.6559 2.86503 6.46004 -25.9333 -5.9242 
88.1232 91.7108 92.5471 3.12421 2.98261 -140.021 0 0 0 14.1562 -6.42377 12.7691 -16.5187 10.4045 15.3878 15.0069 -9.10483 -8.79875 -4.20311 7.71758 -3.89342 -10.3714 2.19607 -8.88529 -42.0508 24.0849 50.197 61.3241 -17.6753 -99.4286 -6.69446 0.497724 -8.49449 6.76778 1.98117 10.1591 56.3855 7.06633 1.30643 -19.3135 -2.03357 95.7817 2.05967 0.159005 8.82794 5.87616 -35.9154 9.8641 -3.09562 16.8731 -4.36432 7.90238 -2.62989 0.181681 1.33634 -13.7061 -3.437 4.53449 27.8403 0.0586241 -0.0724498 29.5443 7.10369 -35.1854 5.0644 1.60675 5.60994 -23.2986 -8.58132 
79.7641 91.846 84.4612 4.87291 5.16514 -139.312 0 0 0 16.5761 -7.00022 11.2421 -15.5628 10.3021 13.4315 12.724 -8.24545 -7.55576 -3.94774 9.09288 -3.14873 -14.6922 2.44918 -7.81297 -42.036 22.2126 48.5014 61.6518 -15.6823 -98.2973 -9.27535 0.613809 -7.55579 10.0501 2.4398 10.4746 57.6235 8.9933 -5.82008 -17.4412 -1.0719 93.4076 0.817647 0.0692783 9.68591 7.8557 -34.4662 12.2771 -1.84173 19.7873 -8.93419 6.21994 -1.87739 0.102012 0.998484 -12.1814 -1.37738 6.29251 25.2826 -4.41454 -2.80917e-008 41.0045 -2.44282 -30.3783 1.7812 0.483614 5.09275 -20.0141 -6.04619 
71.7143 92.6415 76.7406 2.26049 7.85988 -136.777 0 0 0 12.5347 -2.72509 7.06259 -11.3443 8.22853 9.25295 11.4872 -6.27536 -5.31927 -4.39045 8.33945 -1.03587 -20.7748 2.83202 -6.88179 -40.9019 18.4336 42.1312 62.5923 -13.3216 -96.8132 -7.56754 0.429944 -6.49404 12.761 2.94918 11.2982 58.8051 7.21205 -14.413 -17.7338 1.8514 84.2312 1.58279 0.112117 8.10306 6.50291 -29.5473 17.9001 -0.325085 27.4825 -16.9498 11.233 12.5925 -1.24333 1.25149 -15.6838 -1.87487 4.84701 22.1072 -10.3995 2.10166e-007 53.6829 -12.5071 -30.3868 1.43069 0.38855 4.09829 -15.7151 -8.29251 
64.2585 91.9913 69.5679 -0.703425 6.97035 -135.356 0 0 0 6.79142 1.51208 3.41803 -9.04496 4.38261 5.38108 12.7409 -4.07639 -2.49502 -4.7242 5.72801 2.1823 -25.7378 3.06277 -6.07449 -39.4115 14.3337 32.7796 63.5777 -11.5243 -95.6692 -7.90566 0.407211 -5.88795 15.7526 2.99784 9.73692 58.9332 5.50991 -17.9062 -19.1438 8.06117 68.0032 1.80645 0.103351 6.54837 3.99689 -28.6846 17.7447 3.17449e-007 44.3598 -18.1429 17.7265 -4.04585 0.631159 0.23451 -4.40736 0.263957 -0.534449 12.5961 -11.5619 -2.29353e-007 69.6205 -15.8326 -32.0859 -5.51266 -1.58633 4.07924 -15.6256 -8.36984 
57.3081 90.4435 62.7442 -5.04962 4.0815 -134.136 0 0 0 -1.37556 4.08949 0.500157 -6.33479 3.61203 1.80593 14.8869 -5.71998 -0.0307254 -4.80427 7.75725 4.99159 -30.81 3.33504 -5.52802 -34.0534 12.575 16.0382 59.2449 -7.82194 -94.63 -8.16876 0.262129 -3.66967 19.1292 3.23646 9.0602 56.2455 -0.811319 -19.9652 -17.1445 14.6054 50.7375 2.73717 0.135241 5.65619 -1.9486 -24.151 14.9649 -6.76294e-007 52.6595 -14.446 22.0349 -13.2307 2.58705 1.02452 -11.2096 -1.94092 -7.86694 -0.269143 -10.1245 4.58952e-006 83.8582 -12.3413 -38.2109 -9.89485 -3.43497 4.61334 -18.5828 -9.63975 
50.0354 89.4509 55.4825 -6.74022 3.50079 -134.757 0 0 0 -3.40825 5.628 -1.41259 -6.46952 3.08154 -0.549495 15.7123 -2.9959 2.08268 -5.41358 6.59742 7.71953 -31.8749 3.92099 -6.81281 -31.1014 11.1043 -0.301139 58.9327 -4.11026 -92.4726 -6.50697 0.200505 -3.52611 18.2676 2.90223 8.13125 54.971 -7.20247 -23.8473 -9.85682 14.6854 34.426 2.64381 0.161279 6.98047 -3.41614 -16.6335 15.3881 8.99131e-007 56.4915 -13.4824 25.3943 -22.6713 5.1722 0.976844 -13.1263 -0.783551 -9.46177 -14.2073 -6.22416 -0.000688343 89.9591 -10.3593 -37.8266 -13.7834 -4.74289 4.63684 -18.5062 -8.76186 
